<svg xmlns="http://www.w3.org/2000/svg" viewBox="0 0 610 105"><defs><style>.cls-1{opacity:0.5;}.cls-2{fill:#fff;}</style></defs><title>Asset 1</title><g id="Layer_2" data-name="Layer 2"><g id="Layer_1-2" data-name="Layer 1"><g class="cls-1"><path class="cls-2" d="M95.63,63.88c0,18.25-12.5,41.13-39.5,41.13C23.25,105,0,83,0,53.88S27.75.13,52.88.13c14,0,18.75,8,28.88,8a9.83,9.83,0,0,0,9.63-6.87h.5V49.13h-1.5V46.38c0-6.62-12-44.62-35.87-44.62-14.37,0-21,21.63-21,53.75s9.38,47.63,25.13,47.63c19.5,0,35-18.37,35-39.25Z"/><path class="cls-2" d="M157.12,104c-28.12,0-51-23.12-51-51.75S129,.38,157.12.38s51,23.25,51,51.88S185.25,104,157.12,104Zm0-101.75c-12.87,0-18.25,8.38-18.25,48.88s4.88,51.13,18,51.13,19.88-10.62,19.88-51.87S168.75,2.25,157.12,2.25Z"/><path class="cls-2" d="M274.75,102.25h-62v-1.5H220c6.13,0,9.38-2.25,9.38-7.25V12.13c0-5.87-3.37-8.25-8.12-8.25h-3.62V2.25h57.63C300.12,2.25,320.5,25.5,320.5,52,320.5,87.13,298.12,102.25,274.75,102.25ZM270.87,3.88H258V93.25c0,4.5,2.5,7.5,7,7.5h7.88c9.75,0,15-4.62,15-49.25C287.87,11.75,280.5,3.88,270.87,3.88Z"/><path class="cls-2" d="M387.5,102.25H329.12v-1.62h5.25c3.13,0,9.38-2.25,9.38-9.12V13.88c0-6-3.5-10-9.12-10h-5.5V2.25H387.5V3.88h-5.37c-4.87,0-8.87,4.25-8.87,10V91.63c0,6.75,4.5,9,8.13,9h6.13Z"/><path class="cls-2" d="M497.62,4h-2.25C489.5,4,481.5,8.5,481.5,22.25v80H457.87L412.25,16.88s0,60.5-.12,61.63c0,14,5.63,22.13,14.88,22.13h3.5v1.63h-35v-1.62h4c4.88,0,11-8.25,11-22.87V16c0-8-6.5-12.12-11-12.12h-2.12V2.25h45.25l37.13,70.63V22.13C479.75,11,473.25,4,466.87,4h-5.5V2.25h36.25Z"/><path class="cls-2" d="M610,53h-4.37a6.78,6.78,0,0,0-6.87,7v42.25h-1.5v-2.12c0-2.75-2.25-7.87-11.25-7.87-15.75,0-13.25,12-36.12,12-24.87,0-48.12-23.5-48.12-49.75,0-30.87,28.88-54.5,55.13-54.5,12.5,0,17.63,7.13,26.5,7.13,6.75,0,9-4.62,9-6.25h1.13l-.12,40.25-1-.12c-1.5-9.62-13.62-39.25-35.25-39.25-14.75,0-22.62,18.88-22.62,53.13s6,47.63,18.38,47.63c11.13,0,16.75-5.62,16.75-18V60c0-4.75-4.12-7-8.5-7h-6.75V51.38H610Z"/></g></g></g></svg>