<svg xmlns="http://www.w3.org/2000/svg" viewBox="0 0 636.25 214.5"><defs><style>.cls-1{opacity:0.65;}.cls-2{fill:#fff;}</style></defs><title>Asset 1</title><g id="Layer_2" data-name="Layer 2"><g id="Layer_1-2" data-name="Layer 1"><g class="cls-1"><path class="cls-2" d="M83.88,40.63H82.75l-.25-3.37C81.25,22.13,67.5,3.63,48.75,3.63H42.13v44H47c8.75,0,18.38-6.62,18.38-18.25v-2H67V72.5H65.38V69.63c0-11.5-8-20-18-20H42.13V91c0,6.13,1.88,9.25,7.13,9.25h4.5v1.63H0v-1.62H5.38c5.5,0,8.5-1.5,8.5-9.25V12.13c0-6.75-2-8.5-7.25-8.5H1.13V2H83.88Z"/><path class="cls-2" d="M145.5,103.63c-28.12,0-51-23.12-51-51.75S117.37,0,145.5,0s51,23.25,51,51.88S173.62,103.63,145.5,103.63Zm0-101.75c-12.87,0-18.25,8.38-18.25,48.88s4.87,51.13,18,51.13S165.12,91.25,165.12,50,157.12,1.88,145.5,1.88Z"/><path class="cls-2" d="M256.62,103.63c-28.13,0-51-23.12-51-51.75S228.5,0,256.62,0s51,23.25,51,51.88S284.75,103.63,256.62,103.63Zm0-101.75c-12.88,0-18.25,8.38-18.25,48.88s4.88,51.13,18,51.13S276.25,91.25,276.25,50,268.25,1.88,256.62,1.88Z"/><path class="cls-2" d="M374.25,101.88h-62v-1.5h7.25c6.13,0,9.38-2.25,9.38-7.25V11.75c0-5.87-3.37-8.25-8.12-8.25h-3.62V1.88h57.63C399.62,1.88,420,25.13,420,51.63,420,86.75,397.62,101.88,374.25,101.88ZM370.37,3.5H357.5V92.88c0,4.5,2.5,7.5,7,7.5h7.88c9.75,0,15-4.62,15-49.25C387.37,11.38,380,3.5,370.37,3.5Z"/><path class="cls-2" d="M52.38,169.38a23.93,23.93,0,0,1-9-1.5v33.88c0,5.88,2.88,8.63,10.13,8.63h5.13V212H1.5v-1.62H5.75c5.88,0,8.5-3.37,8.5-9.12V120.88c0-5.62-3.62-7.37-7.12-7.37H1.5V112H57c20.88,0,33.5,14,33.5,27.63C90.5,157.5,76.13,169.38,52.38,169.38ZM50,113.5H43.38V166a12,12,0,0,0,6.88,1.75c8,0,11.25-2.62,11.25-27C61.5,114.13,56,113.5,50,113.5Z"/><path class="cls-2" d="M214.12,211.88H160.87v-1.62h2.63c3.13,0,9.5-2.25,9.5-9.12V158.25H141.12v43c0,6.75,4.5,9,8.13,9h3.63v1.63H99.5v-1.62h2.75c3.13,0,9.38-2.25,9.38-9.12V123.5c0-6-3.5-10-9.12-10h-3v-1.62h53.37v1.63H150c-4.87,0-8.87,4.25-8.87,10v32.75H173V123.5c0-6-3.5-10-9.12-10h-3v-1.62h53.25v1.63h-2.75c-4.87,0-9,4.25-9,10v77.75c0,6.75,4.63,9,8.13,9h3.63Z"/><path class="cls-2" d="M273.87,213.63c-28.13,0-51-23.12-51-51.75s22.88-51.87,51-51.87,51,23.25,51,51.88S302,213.63,273.87,213.63Zm0-101.75c-12.87,0-18.25,8.38-18.25,48.88s4.88,51.13,18,51.13S293.5,201.25,293.5,160,285.5,111.88,273.87,111.88Z"/><path class="cls-2" d="M430.25,154.75H429v-4.5c0-15-16-36.75-29-36.75h-1.87v89.13c0,4.63,2.5,7.63,5.5,7.63h7.75v1.63H353.62v-1.62h9.75c3,0,5.25-3.37,5.25-7.37V113.5h-1.5c-11.12,0-29.75,20.38-29.75,37.5v3.75H336V111.88h94.25Z"/><path class="cls-2" d="M491.25,213.63c-28.12,0-51-23.12-51-51.75s22.88-51.87,51-51.87,51,23.25,51,51.88S519.37,213.63,491.25,213.63Zm0-101.75c-12.87,0-18.25,8.38-18.25,48.88s4.88,51.13,18,51.13,19.88-10.62,19.88-51.87S502.87,111.88,491.25,111.88Z"/><path class="cls-2" d="M595.87,214.5c-16.12,0-22.75-7.37-34.12-7.37-5.25,0-7,3.63-7,5l-1.25.13v-43.5h1.38c2.13,10.38,16.63,44.13,39.63,44.13,9.63,0,17.63-6,17.63-15.87,0-31.5-58.5-14.5-58.5-55,0-17,16.75-32.25,38.25-32.25,12.5,0,17.38,5.5,24.75,5.5,7.13,0,9.38-3.37,9.38-5.75l1.13.13v37.63l-1.37-.12c-1-12.87-12.75-35.75-31.37-35.75-9.25,0-15.25,5.75-15.25,15.13,0,30.63,57.13,8.38,57.13,54.63C636.25,199.63,619.5,214.5,595.87,214.5Z"/></g></g></g></svg>