<svg xmlns="http://www.w3.org/2000/svg" viewBox="0 0 586.25 105"><defs><style>.cls-1{opacity:0.5;}.cls-2{fill:#fff;}</style></defs><title>Asset 2</title><g id="Layer_2" data-name="Layer 2"><g id="Layer_1-2" data-name="Layer 1"><g class="cls-1"><path class="cls-2" d="M62,102.38H0v-1.5H7.25c6.13,0,9.38-2.25,9.38-7.25V12.25C16.63,6.38,13.25,4,8.5,4H4.88V2.38H62.5c24.88,0,45.25,23.25,45.25,49.75C107.75,87.25,85.38,102.38,62,102.38ZM58.13,4H45.25V93.38c0,4.5,2.5,7.5,7,7.5h7.88c9.75,0,15-4.62,15-49.25C75.13,11.88,67.75,4,58.13,4Z"/><path class="cls-2" d="M203.62,102.38H111.87v-1.62h8.63c5.38,0,8.38-2.5,8.38-10.25V12.63c0-6.75-2-8.62-7.12-8.62h-5.62V2.5h82.75V41.13h-1.12l-.25-3.37C196.25,22.63,182.5,4,163.87,4h-6.75V48.13H162c8.75,0,18.5-9.25,18.5-20.87v-3.5H182v53h-1.5V72.88c0-11.5-8.12-22.75-18.12-22.75h-5.25V96.88c0,1.5,2,3.88,4.88,3.88h10.25c13.5,0,29.25-26.12,30-38.12L202.5,58h1.13Z"/><path class="cls-2" d="M260.37,105c-16.12,0-22.75-7.37-34.12-7.37-5.25,0-7,3.63-7,5l-1.25.13V59.25h1.38C221.5,69.63,236,103.38,259,103.38c9.63,0,17.63-6,17.63-15.87,0-31.5-58.5-14.5-58.5-55,0-17,16.75-32.25,38.25-32.25,12.5,0,17.38,5.5,24.75,5.5,7.13,0,9.38-3.37,9.38-5.75l1.13.13V37.75l-1.37-.12c-1-12.87-12.75-35.75-31.37-35.75-9.25,0-15.25,5.75-15.25,15.13,0,30.63,57.13,8.38,57.13,54.63C300.75,90.13,284,105,260.37,105Z"/><path class="cls-2" d="M367.12,102.38H308.75v-1.62H314c3.13,0,9.38-2.25,9.38-9.12V14c0-6-3.5-10-9.12-10h-5.5V2.38h58.38V4h-5.37c-4.87,0-8.87,4.25-8.87,10V91.75c0,6.75,4.5,9,8.13,9h6.13Z"/><path class="cls-2" d="M480.75,53.13h-4.37a6.78,6.78,0,0,0-6.87,7v42.25H468v-2.12c0-2.75-2.25-7.87-11.25-7.87-15.75,0-13.25,12-36.12,12-24.87,0-48.12-23.5-48.12-49.75,0-30.87,28.88-54.5,55.13-54.5,12.5,0,17.63,7.13,26.5,7.13,6.75,0,9-4.62,9-6.25h1.13l-.12,40.25-1-.12c-1.5-9.62-13.62-39.25-35.25-39.25-14.75,0-22.62,18.88-22.62,53.13s6,47.63,18.38,47.63c11.13,0,16.75-5.62,16.75-18V60.13c0-4.75-4.12-7-8.5-7h-6.75V51.5h55.63Z"/><path class="cls-2" d="M586.25,4.13H584c-5.87,0-13.87,4.5-13.87,18.25v80H546.5L500.88,17s0,60.5-.12,61.63c0,14,5.63,22.13,14.88,22.13h3.5v1.63h-35v-1.62h4c4.88,0,11-8.25,11-22.87V16.13c0-8-6.5-12.12-11-12.12H486V2.38h45.25L568.38,73V22.25c0-11.12-6.5-18.12-12.87-18.12H550V2.38h36.25Z"/></g></g></g></svg>