<svg xmlns="http://www.w3.org/2000/svg" viewBox="0 0 628.62 213.88"><defs><style>.cls-1{opacity:0.5;}.cls-2{fill:#fff;}</style></defs><title>Asset 1</title><g id="Layer_2" data-name="Layer 2"><g id="Layer_1-2" data-name="Layer 1"><g class="cls-1"><path class="cls-2" d="M45,105c-16.12,0-22.75-7.37-34.12-7.37-5.25,0-7,3.63-7,5l-1.25.13V59.25H4c2.13,10.38,16.63,44.13,39.63,44.13,9.63,0,17.63-6,17.63-15.87,0-31.5-58.5-14.5-58.5-55C2.75,15.5,19.5.25,41,.25c12.5,0,17.38,5.5,24.75,5.5,7.13,0,9.38-3.37,9.38-5.75l1.13.13V37.75l-1.37-.12C73.88,24.75,62.13,1.88,43.5,1.88,34.25,1.88,28.25,7.63,28.25,17c0,30.63,57.13,8.38,57.13,54.63C85.38,90.13,68.63,105,45,105Z"/><path class="cls-2" d="M151.75,102.38H93.38v-1.62h5.25c3.13,0,9.38-2.25,9.38-9.12V14c0-6-3.5-10-9.12-10h-5.5V2.38h58.38V4h-5.37c-4.87,0-8.87,4.25-8.87,10V91.75c0,6.75,4.5,9,8.13,9h6.13Z"/><path class="cls-2" d="M256.37,45.25h-1.25v-4.5c0-15-16-36.75-29-36.75h-1.87V93.13c0,4.63,2.5,7.63,5.5,7.63h7.75v1.63H179.75v-1.62h9.75c3,0,5.25-3.37,5.25-7.37V4h-1.5C182.12,4,163.5,24.38,163.5,41.5v3.75h-1.37V2.38h94.25Z"/><path class="cls-2" d="M353.12,102.38H261.37v-1.62H270c5.38,0,8.38-2.5,8.38-10.25V12.63c0-6.75-2-8.62-7.12-8.62h-5.62V2.5h82.75V41.13h-1.12L347,37.75C345.75,22.63,332,4,313.37,4h-6.75V48.13h4.88c8.75,0,18.5-9.25,18.5-20.87v-3.5h1.5v53H330V72.88c0-11.5-8.12-22.75-18.12-22.75h-5.25V96.88c0,1.5,2,3.88,4.88,3.88h10.25c13.5,0,29.25-26.12,30-38.12L352,58h1.13Z"/><path class="cls-2" d="M102.38,181.63c0,23.13-2.37,32.25-21,32.25-15.37,0-22-10-22-20.5,0-5.87.63-10.5.63-19,0-9.37-2.87-13.25-10.62-13.25h-9V204c0,5,2.13,6.88,5.5,6.88h5.88v1.5H.13v-1.5H5.38c4.63,0,6.88-2.5,6.88-7.12V121.88c0-6.12-2.25-7.87-6.12-7.87H0v-1.5H48.25c32,0,43.25,10.25,43.25,24,0,14-15.25,20.75-26,23.63v.5c8.25,1.88,25.13,6.13,25.13,22.13v18c0,4.25,1.25,6.38,3.88,6.38,5,0,6.5-11.75,6.5-25.5ZM48.88,114h-8.5v45.5h8.75c10.25,0,13.38-3.12,13.38-22.5C62.5,116.25,57.38,114,48.88,114Z"/><path class="cls-2" d="M197.12,212.38H105.37v-1.62H114c5.38,0,8.38-2.5,8.38-10.25V122.63c0-6.75-2-8.62-7.12-8.62h-5.62v-1.5h82.75v38.63h-1.12l-.25-3.37C189.75,132.63,176,114,157.37,114h-6.75v44.13h4.88c8.75,0,18.5-9.25,18.5-20.87v-3.5h1.5v53H174v-3.87c0-11.5-8.12-22.75-18.12-22.75h-5.25v46.75c0,1.5,2,3.88,4.88,3.88h10.25c13.5,0,29.25-26.12,30-38.12L196,168h1.13Z"/><path class="cls-2" d="M309.75,114h-3.12c-6.25,0-10.12,7-13.75,19.75l-22.12,78.63H246.37L219,121.75c-1.62-5-4-7.75-8.25-7.75h-3.5v-1.5H264V114h-3.75c-4.75,0-7.38,1.63-7.38,5.25a15,15,0,0,0,.5,3l20.13,73,16.13-56.37a31.23,31.23,0,0,0,1.5-9.62c0-10.12-5.75-15.25-11.87-15.25h-5.62v-1.5h36.13Z"/><path class="cls-2" d="M404.87,212.38H347.62v-1.62H355c3.25,0,5.13-2,5.13-5.25a11.62,11.62,0,0,0-.5-3.37l-10-31.75H322.87l-4.25,14.25a39.08,39.08,0,0,0-1.75,10.5c0,10.38,6.38,15.63,13.38,15.63h4.38v1.63h-41.5v-1.62h2.38c10.38,0,17.75-15.87,21.75-28.75l21.88-69.62H362l31,93.5c1.25,3.5,3.63,4.88,7,4.88h4.88Zm-55.75-43.75-13-40.25-12.75,40.25Z"/><path class="cls-2" d="M532,212.5H475.62v-1.62h4.88c4.88,0,7.13-4.25,7.13-8.87V128.88l-21.5,83.63h-16.5l-24.25-83.12V190.5c0,12.63,6.25,20.38,12.13,20.38h4.75v1.63H406.87v-1.62h4.38c5.75,0,12.38-7.12,12.38-20.5V127.25c0-9.75-5.62-13.25-12.12-13.25h-3.37v-1.5h44.13L472,182.38l18.13-69.87H531.5V114h-5.12c-7.62,0-10,1.75-10,7v82.75c0,4.75,3.13,7.13,7.13,7.13H532Z"/><path class="cls-2" d="M590.5,169.88a23.93,23.93,0,0,1-9-1.5v33.88c0,5.88,2.88,8.63,10.13,8.63h5.13v1.63H539.62v-1.62h4.25c5.88,0,8.5-3.37,8.5-9.12V121.38c0-5.62-3.62-7.37-7.12-7.37h-5.62v-1.5h55.5c20.88,0,33.5,14,33.5,27.63C628.62,158,614.25,169.88,590.5,169.88ZM588.12,114H581.5v52.5a12,12,0,0,0,6.88,1.75c8,0,11.25-2.62,11.25-27C599.62,114.63,594.12,114,588.12,114Z"/></g></g></g></svg>