<?xml version="1.0" encoding="utf-8"?>
<!-- Generator: Adobe Illustrator 20.1.0, SVG Export Plug-In . SVG Version: 6.00 Build 0)  -->
<svg version="1.1" id="Layer_1" xmlns="http://www.w3.org/2000/svg" xmlns:xlink="http://www.w3.org/1999/xlink" x="0px" y="0px"
	 viewBox="0 0 610 105" style="enable-background:new 0 0 610 105;" xml:space="preserve">
<style type="text/css">
	.st0{fill:#ABF6D3;}
</style>
<title>Asset 1</title>
<title>Asset 1</title>
<title>Asset 1</title>
<title>Asset 1</title>
<title>Asset 1</title>
<title>Asset 1</title>
<g>
	<g>
		<path class="st0" d="M58.7,103.1c-15.8,0-25.1-15.5-25.1-47.6s6.6-53.8,21-53.8c23.9,0,35.9,38,35.9,44.6v2.8h1.5V1.3h-0.5
			c-1.3,4.2-5.2,7-9.6,6.9c-10.1,0-14.9-8-28.9-8C27.8,0.1,0,24.8,0,53.9S23.2,105,56.1,105c27,0,39.5-22.9,39.5-41.1l-2,0
			C93.7,84.8,78.2,103.1,58.7,103.1z"/>
	</g>
	<g>
		<path class="st0" d="M157.1,0.4c-28.1,0-51,23.2-51,51.9s22.9,51.8,51,51.8c28.1,0,51-23.1,51-51.7S185.2,0.4,157.1,0.4z
			 M156.9,102.3c-13.1,0-18-10.6-18-51.1s5.4-48.9,18.2-48.9c11.6,0,19.6,6.9,19.6,48.1S170,102.3,156.9,102.3z"/>
	</g>
	<g>
		<path class="st0" d="M275.3,2.2h-57.6v1.6h3.6c4.8,0,8.1,2.4,8.1,8.2v81.4c0,5-3.2,7.2-9.4,7.2h-7.2v1.5h62
			c23.4,0,45.8-15.1,45.8-50.2C320.5,25.5,300.1,2.2,275.3,2.2z M272.9,100.8H265c-4.5,0-7-3-7-7.5V3.9h12.9c9.6,0,17,7.9,17,47.6
			C287.9,96.1,282.6,100.8,272.9,100.8z"/>
	</g>
	<g>
		<path class="st0" d="M373.3,91.6V13.9c0-5.8,4-10,8.9-10h5.4V2.2h-58.4v1.6h5.5c5.6,0,9.1,4,9.1,10v77.6c0,6.9-6.2,9.1-9.4,9.1
			h-5.2v1.6h58.4l0-1.6h-6.1C377.8,100.6,373.3,98.4,373.3,91.6z"/>
	</g>
	<g>
		<path class="st0" d="M461.4,4h5.5c6.4,0,12.9,7,12.9,18.1v50.8L442.6,2.2h-45.2v1.6h2.1c4.5,0,11,4.1,11,12.1v61.8
			c0,14.6-6.1,22.9-11,22.9h-4v1.6h35v-1.6H427c-9.2,0-14.9-8.1-14.9-22.1c0.1-1.1,0.1-61.6,0.1-61.6l45.6,85.4h23.6v-80
			c0-13.8,8-18.2,13.9-18.2h2.2V2.2h-36.2V4z"/>
	</g>
	<g>
		<path class="st0" d="M554.4,51.4V53h6.8c4.4,0,8.5,2.2,8.5,7v24.5c0,12.4-5.6,18-16.8,18c-12.4,0-18.4-13.4-18.4-47.6
			s7.9-53.1,22.6-53.1c21.6,0,33.8,29.6,35.2,39.2l1,0.1l0.1-40.2h-1.1c0,1.6-2.2,6.2-9,6.2c-8.9,0-14-7.1-26.5-7.1
			c-26.2,0-55.1,23.6-55.1,54.5c0,26.2,23.2,49.8,48.1,49.8c22.9,0,20.4-12,36.1-12c9,0,11.2,5.1,11.2,7.9v2.1h1.5V60
			c0-0.1,0-0.2,0-0.3c0.1-3.7,3.1-6.7,6.9-6.7h4.4v-1.6H554.4z"/>
	</g>
</g>
</svg>
