<?xml version="1.0" encoding="utf-8"?>
<!-- Generator: Adobe Illustrator 20.1.0, SVG Export Plug-In . SVG Version: 6.00 Build 0)  -->
<svg version="1.1" id="Layer_1" xmlns="http://www.w3.org/2000/svg" xmlns:xlink="http://www.w3.org/1999/xlink" x="0px" y="0px"
	 viewBox="0 0 586.2 105" style="enable-background:new 0 0 586.2 105;" xml:space="preserve">
<style type="text/css">
	.st0{opacity:0.5;}
	.st1{fill:#56EDA6;}
</style>
<title>Asset 2</title>
<g id="Layer_2">
	<g id="Layer_1-2">
		<g class="st0">
			<path class="st1" d="M62,102.4H0v-1.5h7.2c6.1,0,9.4-2.2,9.4-7.2V12.2c0-5.9-3.4-8.2-8.1-8.2H4.9V2.4h57.6
				c24.9,0,45.2,23.2,45.2,49.8C107.8,87.2,85.4,102.4,62,102.4z M58.1,4H45.2v89.4c0,4.5,2.5,7.5,7,7.5h7.9c9.8,0,15-4.6,15-49.2
				C75.1,11.9,67.8,4,58.1,4z"/>
			<path class="st1" d="M203.6,102.4h-91.7v-1.6h8.6c5.4,0,8.4-2.5,8.4-10.2V12.6c0-6.8-2-8.6-7.1-8.6h-5.6V2.5h82.8v38.6h-1.1
				l-0.2-3.4C196.2,22.6,182.5,4,163.9,4h-6.8v44.1h4.9c8.8,0,18.5-9.2,18.5-20.9v-3.5h1.5v53h-1.5v-3.9c0-11.5-8.1-22.8-18.1-22.8
				h-5.2v46.8c0,1.5,2,3.9,4.9,3.9h10.2c13.5,0,29.2-26.1,30-38.1l0.2-4.6h1.1L203.6,102.4z"/>
			<path class="st1" d="M260.4,105c-16.1,0-22.8-7.4-34.1-7.4c-5.2,0-7,3.6-7,5l-1.2,0.1V59.2h1.4c2.1,10.4,16.6,44.1,39.6,44.1
				c9.6,0,17.6-6,17.6-15.9c0-31.5-58.5-14.5-58.5-55c0-17,16.8-32.2,38.2-32.2c12.5,0,17.4,5.5,24.8,5.5c7.1,0,9.4-3.4,9.4-5.8
				l1.1,0.1v37.6l-1.4-0.1c-1-12.9-12.8-35.8-31.4-35.8c-9.2,0-15.2,5.8-15.2,15.1c0,30.6,57.1,8.4,57.1,54.6
				C300.8,90.1,284,105,260.4,105z"/>
			<path class="st1" d="M367.1,102.4h-58.4v-1.6h5.2c3.1,0,9.4-2.2,9.4-9.1V14c0-6-3.5-10-9.1-10h-5.5V2.4h58.4V4h-5.4
				c-4.9,0-8.9,4.2-8.9,10v77.8c0,6.8,4.5,9,8.1,9h6.1L367.1,102.4z"/>
			<path class="st1" d="M480.8,53.1h-4.4c-3.7-0.1-6.8,2.9-6.9,6.7c0,0.1,0,0.2,0,0.3v42.3H468v-2.1c0-2.8-2.2-7.9-11.2-7.9
				c-15.8,0-13.2,12-36.1,12c-24.9,0-48.1-23.5-48.1-49.8c0-30.9,28.9-54.5,55.1-54.5c12.5,0,17.6,7.1,26.5,7.1c6.8,0,9-4.6,9-6.2
				h1.1l-0.1,40.2l-1-0.1c-1.5-9.6-13.6-39.2-35.2-39.2c-14.8,0-22.6,18.9-22.6,53.1s6,47.6,18.4,47.6c11.1,0,16.8-5.6,16.8-18V60.1
				c0-4.8-4.1-7-8.5-7h-6.8v-1.6h55.6L480.8,53.1z"/>
			<path class="st1" d="M586.2,4.1H584c-5.9,0-13.9,4.5-13.9,18.2v80h-23.6L500.9,17c0,0,0,60.5-0.1,61.6c0,14,5.6,22.1,14.9,22.1
				h3.5v1.6h-35v-1.6h4c4.9,0,11-8.2,11-22.9V16.1c0-8-6.5-12.1-11-12.1H486V2.4h45.2L568.4,73V22.2c0-11.1-6.5-18.1-12.9-18.1H550
				V2.4h36.2V4.1z"/>
		</g>
	</g>
</g>
</svg>
