<svg xmlns="http://www.w3.org/2000/svg" viewBox="0 0 557.75 213.25"><defs><style>.cls-1{opacity:0.5;}.cls-2{fill:#fff;}</style></defs><title>Asset 1</title><g id="Layer_2" data-name="Layer 2"><g id="Layer_1-2" data-name="Layer 1"><g class="cls-1"><path class="cls-2" d="M62,100H0V98.5H7.25c6.13,0,9.38-2.25,9.38-7.25V9.88c0-5.87-3.37-8.25-8.12-8.25H4.88V0H62.5c24.88,0,45.25,23.25,45.25,49.75C107.75,84.88,85.38,100,62,100ZM58.13,1.63H45.25V91c0,4.5,2.5,7.5,7,7.5h7.88c9.75,0,15-4.62,15-49.25C75.13,9.5,67.75,1.63,58.13,1.63Z"/><path class="cls-2" d="M215.25,69.25c0,23.13-2.37,32.25-21,32.25-15.37,0-22-10-22-20.5,0-5.87.63-10.5.63-19,0-9.37-2.87-13.25-10.62-13.25h-9V91.63c0,5,2.13,6.88,5.5,6.88h5.88V100H113V98.5h5.25c4.63,0,6.88-2.5,6.88-7.12V9.5c0-6.12-2.25-7.87-6.12-7.87h-6.12V.13h48.25c32,0,43.25,10.25,43.25,24,0,14-15.25,20.75-26,23.63v.5c8.25,1.88,25.13,6.13,25.13,22.13v18c0,4.25,1.25,6.38,3.88,6.38,5,0,6.5-11.75,6.5-25.5ZM161.75,1.63h-8.5v45.5H162c10.25,0,13.38-3.12,13.38-22.5C175.37,3.88,170.25,1.63,161.75,1.63Z"/><path class="cls-2" d="M310,100H218.25V98.38h8.63c5.38,0,8.38-2.5,8.38-10.25V10.25c0-6.75-2-8.62-7.12-8.62H222.5V.13h82.75V38.75h-1.12l-.25-3.37c-1.25-15.12-15-33.75-33.62-33.75H263.5V45.75h4.88c8.75,0,18.5-9.25,18.5-20.87v-3.5h1.5v53h-1.5V70.5c0-11.5-8.12-22.75-18.12-22.75H263.5V94.5c0,1.5,2,3.88,4.88,3.88h10.25c13.5,0,29.25-26.12,30-38.12l.25-4.62H310Z"/><path class="cls-2" d="M430.62,100H373.37V98.38h7.38c3.25,0,5.13-2,5.13-5.25a11.62,11.62,0,0,0-.5-3.37L375.37,58H348.62l-4.25,14.25a39.08,39.08,0,0,0-1.75,10.5c0,10.38,6.38,15.63,13.38,15.63h4.38V100h-41.5V98.38h2.38C331.62,98.38,339,82.5,343,69.63L364.87,0h22.88l31,93.5c1.25,3.5,3.63,4.88,7,4.88h4.88ZM374.87,56.25,361.87,16,349.12,56.25Z"/><path class="cls-2" d="M557.75,100.13H501.37V98.5h4.88c4.88,0,7.13-4.25,7.13-8.87V16.5l-21.5,83.63h-16.5L451.12,17V78.13c0,12.63,6.25,20.38,12.13,20.38H468v1.63H432.62V98.5H437c5.75,0,12.38-7.12,12.38-20.5V14.88c0-9.75-5.62-13.25-12.12-13.25h-3.37V.13H478L497.75,70,515.87.13h41.38v1.5h-5.12c-7.62,0-10,1.75-10,7V91.38c0,4.75,3.13,7.13,7.13,7.13h8.5Z"/><path class="cls-2" d="M340,111.63h-5.5c-3.25,0-7,1.75-7,6.38v67.38c0,17.75-20.5,27.88-40,27.88-17.37,0-34-8.12-34-25.75,0-10.5,8.88-18.5,17.88-18.5,9.75,0,17.25,8,17.25,16.63a15.79,15.79,0,0,1-15.75,15.88c-4,0-7-1.37-8.12-1.37-.25,0-.5.13-.5.38,0,3.88,6.75,10.38,16.88,10.38,9.88,0,16.75-6.75,16.75-18.75V119.88c0-6.37-3-8.25-8.25-8.25h-5.87V110H340Z"/><path class="cls-2" d="M395.62,211.75c-28.12,0-51-23.12-51-51.75s22.88-51.87,51-51.87,51,23.25,51,51.88S423.75,211.75,395.62,211.75Zm0-101.75c-12.87,0-18.25,8.38-18.25,48.88s4.88,51.13,18,51.13,19.88-10.62,19.88-51.87S407.25,110,395.62,110Z"/><path class="cls-2" d="M518.5,210.13h-66v-1.75h7.75a8.14,8.14,0,0,0,8-8.37V116.75c0-3.62-2-5.12-5.87-5.12h-6.75V110h55.5c19.25,0,35.75,8,35.75,23,0,11.88-11.25,20.13-25,22.75l.13.88c16.5,2.25,32.38,11.88,32.38,27.13S541.25,210.13,518.5,210.13Zm-10.87-98.5H497v43.63h10.75c8.38,0,9.5-6.75,9.5-22.75S513.37,111.63,507.62,111.63Zm-.37,45.63H497v42.88c0,5.88.25,8.25,9.13,8.25,12.5,0,14.5-4.25,14.5-25.37C520.62,166.13,516.37,157.25,507.25,157.25Z"/></g></g></g></svg>